<?xml version="1.0" encoding="utf-8"?>
<!-- Generator: Adobe Illustrator 22.0.1, SVG Export Plug-In . SVG Version: 6.00 Build 0)  -->
<svg version="1.1" id="Layer_1" xmlns="http://www.w3.org/2000/svg" xmlns:xlink="http://www.w3.org/1999/xlink" x="0px" y="0px"
	 viewBox="0 0 303.1 183.5" style="enable-background:new 0 0 303.1 183.5;" xml:space="preserve">
<style type="text/css">
	.st0{fill:#A4CD39;}
	.st1{fill:#FFFFFF;}
</style>
<circle class="st0" cx="91.8" cy="91.8" r="91.8"/>
<path class="st1" d="M101.7,48.7c0,4.2-3.4,7.6-7.6,7.6c-4.2,0-7.6-3.4-7.6-7.6c0-4.2,3.4-7.6,7.6-7.6
	C98.3,41.2,101.7,44.6,101.7,48.7z M79,77.1v17.1l-14.7,37.6c0,0,0,0,0,0l-0.1,0.1l0,0c-0.3,0.6-0.4,1.3-0.4,2.1
	c0,3.1,2.5,5.7,5.7,5.7c2.4,0,4.5-1.5,5.3-3.6l0,0L89,99.7l21,37.2l0,0c1,1.7,2.8,2.9,4.9,2.9c3.1,0,5.7-2.6,5.7-5.7
	c0-1-0.3-2-0.8-2.8l0,0l-22-39V79.7l11.5,13.8l0,0c0.9,1,2.1,1.7,3.6,1.7c2.6,0,4.7-2.1,4.7-4.7c0-1.2-0.5-2.2-1.1-3l0,0l-19-22.8
	c-4.9-4.9-10.5-6.7-14.4-4.3l-19,17.1l0,0c-1,0.9-1.6,2.1-1.6,3.5v9.5h0c0,2.6,2.1,4.7,4.7,4.7c2.6,0,4.7-2.1,4.7-4.7v-7.4L79,77.1z
	"/>
<path class="st0" d="M211.3,0c-32.4,0-91.8,59.3-91.8,91.8s59.3,91.8,91.8,91.8c32.5,0,91.8-59.3,91.8-91.8S243.7,0,211.3,0z
	 M211.3,176.5c-13,0-33.9-12.4-53.1-31.7c-19.2-19.2-31.7-40.1-31.7-53.1s12.4-33.9,31.7-53.1C177.4,19.4,198.3,7,211.3,7
	c13,0,33.9,12.4,53.1,31.7c19.2,19.2,31.7,40.1,31.7,53.1s-12.4,33.9-31.7,53.1C245.2,164.1,224.3,176.5,211.3,176.5z"/>
<path class="st1" d="M296.1,91.8c0,13-12.4,33.9-31.7,53.1c-19.2,19.2-40.1,31.7-53.1,31.7c-13,0-33.9-12.4-53.1-31.7
	c-19.2-19.2-31.7-40.1-31.7-53.1s12.4-33.9,31.7-53.1C177.4,19.4,198.3,7,211.3,7c13,0,33.9,12.4,53.1,31.7
	C283.6,57.9,296.1,78.8,296.1,91.8z"/>
<path class="st0" d="M214.8,118.3c0,12.5,10.2,22.8,22.8,22.8c12.5,0,22.8-10.2,22.8-22.8c0-12.6-10.2-22.8-22.8-22.8
	C225,95.6,214.8,105.8,214.8,118.3z M222.4,118.4c0-8.4,6.8-15.2,15.2-15.2s15.2,6.8,15.2,15.2c0,8.4-6.8,15.2-15.2,15.2
	S222.4,126.7,222.4,118.4z M150.3,118.3c0,12.5,10.2,22.8,22.8,22.8c12.5,0,22.8-10.2,22.8-22.8c0-12.6-10.2-22.8-22.8-22.8
	C160.5,95.6,150.3,105.8,150.3,118.3z M157.9,118.4c0-8.4,6.8-15.2,15.2-15.2c8.4,0,15.2,6.8,15.2,15.2c0,8.4-6.8,15.2-15.2,15.2
	C164.7,133.5,157.9,126.7,157.9,118.4z M222.4,50.1c0,4.2-3.4,7.6-7.6,7.6c-4.2,0-7.6-3.4-7.6-7.6c0-4.2,3.4-7.6,7.6-7.6
	C219,42.5,222.4,45.9,222.4,50.1z M199.6,99.1l-18.1-10.1c-2.8-1.1-4.7-3.8-4.7-7c0-2,0.8-3.9,2.1-5.3l0,0l17.7-18.4l0,0
	c1.4-1.4,3.3-2.3,5.5-2.3c2.3,0,4.3,1.1,5.7,2.7l9.3,13.1h16.5c2.6,0,4.7,2.1,4.7,4.7c0,2.6-2.1,4.7-4.7,4.7h-19
	c-1.6,0-3-0.8-3.8-2.1l-5.7-7.9l-9.9,10.3l12.7,7.1l0,0c1.7,1,2.9,2.8,2.9,4.9v26.6c0,3.1-2.5,5.7-5.7,5.7c-3.1,0-5.7-2.5-5.7-5.7
	V99.1z"/>
</svg>
