<?xml version="1.0" encoding="utf-8"?>
<!-- Generator: Adobe Illustrator 22.0.1, SVG Export Plug-In . SVG Version: 6.00 Build 0)  -->
<svg version="1.1" id="Layer_1" xmlns="http://www.w3.org/2000/svg" xmlns:xlink="http://www.w3.org/1999/xlink" x="0px" y="0px"
	 viewBox="0 0 40 40" style="enable-background:new 0 0 40 40;" xml:space="preserve">
<style type="text/css">
	.st0{fill:#ff6b6b;}
</style>
<path class="st0" d="M33.1,6.4C29.7,3.1,25.1,1,20,1S10.3,3.1,6.9,6.4c-3.3,3.3-5.4,8-5.4,13.1C1.5,29.7,9.8,38,20,38
	c5.1,0,9.7-2.1,13.1-5.4c3.3-3.3,5.4-8,5.4-13.1S36.4,9.8,33.1,6.4z M30.6,20.5l-16.6,8.3c-0.3,0.1-0.6-0.1-0.6-0.4V11.8
	c0-0.3,0.3-0.5,0.6-0.4l16.6,8.3C30.9,19.9,30.9,20.3,30.6,20.5z"/>
</svg>
