<?xml version="1.0" encoding="UTF-8"?>
<svg width="494px" height="258px" viewBox="0 0 494 258" version="1.1" xmlns="http://www.w3.org/2000/svg" xmlns:xlink="http://www.w3.org/1999/xlink">
    <g id="First" stroke="none" stroke-width="1" fill="none" fill-rule="evenodd">
        <g id="Group" transform="translate(18.000000, 31.000000)">
            <path d="M214.227378,118.748975 C213.27207,103.609703 219.779721,86.9745161 222.759031,83.9819514 L241.930031,75.9999514 L241.522031,76.7209514 C224.457031,107.096951 231.301031,117.705151 231.301031,117.705151 L231.924031,117.209051 C258.062031,96.2919514 254.346031,86.0769514 254.346031,86.0769514 L276.000031,77.6959514 L275.903031,78.0549514 C274.856031,81.8849514 265.467031,115.720551 251.525031,147.999951 L237.317031,147.999951 C243.583031,132.308451 246.018031,118.835551 246.277031,117.343251 L246.300031,117.206251 C243.227031,123.099051 223.306031,134.779151 220.827031,136.216651 L220.574031,136.362751 C218.089766,133.484852 216.44303,130.054963 215.436806,126.344439 C183.116441,142.754474 174.412031,135.319951 174.412031,135.319951 C171.015031,130.345251 186.661031,88.8409514 196.956031,62.9469514 C157.018031,65.8069514 123.299031,68.4229514 120.100031,69.3139514 C120.100031,69.3139514 117.100031,65.0409514 115.000031,65.5379514 C115.000031,65.5379514 128.700031,56.7939514 133.000031,56.5949514 C133.000031,56.5949514 163.134031,55.6399514 200.276031,54.6679514 C203.337031,47.1009514 205.393031,42.1939514 205.393031,42.1939514 L225.018031,33.9999514 C225.018031,33.9999514 221.654031,42.4389514 217.108031,54.2389514 C270.189031,52.9279514 330.032031,51.8459514 337.000031,53.4149514 C337.000031,53.4149514 272.818031,57.6019514 214.241031,61.7209514 C204.624031,86.9559514 192.177031,121.086351 193.040031,126.526851 C193.040031,126.526851 206.166717,123.356214 214.227378,118.748975 Z M400.927031,49.7349514 C400.927031,49.7349514 417.402031,41.4939514 419.899031,38.9999514 C420.843031,51.7059514 398.053031,100.485951 398.053031,100.485951 C398.053031,100.485951 412.831031,92.4059514 415.028031,95.3979514 C426.511031,122.933251 434.000031,120.139851 434.000031,120.139851 C432.602031,125.826451 413.830031,127.322851 413.830031,127.322851 C408.837031,126.325251 399.651031,108.367951 399.651031,108.367951 C396.455031,109.065951 384.573031,129.816951 384.573031,129.816951 C381.977031,132.809851 369.495031,136.999951 369.495031,136.999951 C366.999031,134.705351 366.000031,132.311051 366.000031,132.311051 C384.173031,103.877951 400.503031,60.7369514 400.927031,49.7349514 Z M376.921031,80.3059514 C360.817031,90.4869514 350.753031,99.0709514 350.853031,99.0709514 C363.635031,101.865951 370.278031,112.944951 370.278031,112.944951 C371.888031,128.016751 330.019031,136.999951 330.019031,136.999951 C327.503031,136.401051 327.000031,134.704251 327.000031,134.704251 C338.172031,132.807751 351.357031,120.031751 351.357031,120.031751 C353.168031,115.041051 332.838031,104.160951 332.838031,104.160951 C330.724031,90.4869514 369.070031,79.1079514 369.876031,79.0089514 C370.681031,78.9089514 377.827031,79.7069514 376.921031,80.3059514 Z M284.587031,81.3809514 L305.638031,75.9999514 C292.443031,95.4319514 286.299031,122.936051 286.299031,122.936051 C293.249031,123.334751 306.545031,94.4359514 307.955031,91.9439514 L327.898031,84.9689514 C317.322031,115.960451 316.617031,124.630151 318.128031,126.722851 C318.732031,127.520051 336.762031,117.654551 336.762031,117.654551 L342.000031,117.554851 C318.732031,138.182851 300.803031,136.987051 300.803031,136.987051 C299.695031,136.289451 297.983031,123.832951 297.983031,123.832951 C293.551031,136.987051 266.154031,134.097151 266.154031,134.097151 C264.341031,132.203751 279.047031,88.5559514 284.587031,81.3809514 Z M183.000031,74.2289514 C156.361031,128.746051 170.690031,125.527351 170.589031,125.627951 C173.414031,130.657251 150.408031,137.999951 150.408031,137.999951 C141.932031,135.988251 152.426031,114.261751 149.399031,119.793951 C146.372031,125.326151 121.247031,133.976551 121.247031,133.976551 L116.000031,124.521451 C120.036031,67.6909514 183.000031,74.2289514 183.000031,74.2289514 Z M137.190031,119.693351 C137.190031,119.693351 157.774031,110.640651 160.196031,87.3049514 C160.398031,84.3879514 132.346031,88.8139514 137.190031,119.693351 Z M77.2079314,87.8059514 C71.9736314,85.6979514 104.990031,62.2129514 104.386031,95.1329514 C104.386031,95.1329514 131.363031,69.8409514 137.000031,72.1489514 L131.766031,82.9879514 C131.766031,82.9879514 104.386031,93.0249514 103.581031,127.651251 L81.1337314,140.999951 L76.0000314,137.888651 C76.0000314,137.788251 110.124031,100.853951 77.2079314,87.8059514 Z M88.7997314,50.1659514 C74.0771314,89.6149514 56.2325314,141.471751 56.2325314,141.471751 C54.8350314,141.070451 44.3536314,149.999951 44.3536314,149.999951 L39.9614314,147.692351 C44.3204314,142.300051 57.1266314,101.090951 67.3806314,65.0659514 C47.0367314,81.0849514 36.1625314,97.2119514 50.3430314,109.666551 C11.5056314,125.735551 15.7954314,93.0169514 71.0028314,52.1759514 C74.6540314,39.0059514 77.7258314,27.3509514 79.5870314,19.5649514 C47.6349314,23.5069514 13.4875314,27.0489514 5.12323136,25.3879514 C-11.5471686,22.0769514 17.8007314,8.63195145 17.8007314,8.63195145 C17.8007314,8.63195145 172.227031,-2.70504855 178.815031,0.605951448 C182.533031,2.44595145 129.469031,24.5609514 88.7997314,50.1659514 Z M93.8991314,36.6879514 C107.470031,28.2539514 123.110031,19.6969514 140.882031,11.3409514 C140.882031,11.3409514 123.934031,13.8119514 101.930031,16.7109514 C99.6803314,21.9209514 96.9275314,28.8129514 93.8991314,36.6879514 Z M230.816031,187.137351 L230.833031,187.139551 C222.794031,198.683051 214.145031,206.740051 205.294031,207.999951 C205.294031,207.999951 182.768031,180.796551 190.715031,146.075451 C194.688031,144.479151 208.087031,146.075451 208.087031,146.075451 C200.140031,172.016551 210.757031,188.244851 210.757031,188.244851 C211.582031,187.544051 212.389031,186.821951 213.179031,186.080451 L213.167031,186.075951 C217.561031,181.951251 221.416031,177.228551 224.763031,172.231951 L240.181031,171.759251 C237.174031,177.305951 234.044031,182.503051 230.816031,187.137351 Z" id="Combined-Shape" fill="#FFFFFF"></path>
            <path d="M184.497031,152.999951 C183.911031,158.128951 183.900031,163.325051 184.418031,168.573551 C116.480031,170.734551 81.2137314,172.211651 78.6408314,172.994051 L78.6219314,172.999951 C78.6219314,172.999951 59.9039314,166.172951 55.2646314,166.265451 C54.8598314,166.273551 54.3681314,166.298551 54.0546314,166.371751 L54.0000314,166.385051 C54.0000314,166.287451 77.5995,153.195151 87,152.999951 L184.497031,152.999951 Z M452,152.999951 L210.229031,167.777751 C209.934031,162.846851 210.392031,157.854451 211.440031,152.999951 L452,152.999951 Z" id="Combined-Shape" fill="#00AAF4"></path>
        </g>
    </g>
</svg>