<?xml version="1.0" encoding="utf-8"?>
<!-- Generator: Adobe Illustrator 22.0.1, SVG Export Plug-In . SVG Version: 6.00 Build 0)  -->
<svg version="1.1" id="Layer_1" xmlns="http://www.w3.org/2000/svg" xmlns:xlink="http://www.w3.org/1999/xlink" x="0px" y="0px"
	 viewBox="0 0 585 252" style="enable-background:new 0 0 585 252;" xml:space="preserve">
<style type="text/css">
	.st0{fill:#FFFFFF;}
	.st1{fill:#4ECDC4;}
</style>
<path class="st0" d="M101.3,119.9c-5.2-2.1,27.6-25.5,27,7.3c0,0,26.8-25.2,32.4-22.9l-5.2,10.8c0,0-27.2,10-28,44.5l-22.3,13.3
	l-5.1-3.1C100.1,169.7,134,132.9,101.3,119.9z"/>
<path class="st0" d="M205.2,105.8c0,0-62.4-6.5-66.4,50l5.2,9.4c0,0,24.9-8.6,27.9-14.1s-7.4,16.1,1,18.1c0,0,22.8-7.3,20-12.3
	C193,156.8,178.8,160,205.2,105.8L205.2,105.8z M159.8,151c-4.8-30.7,23-35.1,22.8-32.2C180.2,142,159.8,151,159.8,151z"/>
<path class="st1" d="M120.6,180.9c0,0,414.7-13.1,442.4-5.3c0,0-452.4,32.7-470.2,38.6c0,0-6.5-11.3-11.1-10.1
	C81.7,204,111.2,181.1,120.6,180.9z"/>
<g>
	<path class="st0" d="M228.2,69.7c0,0-36.1,85.9-31.1,93.2c0,0,10.1,8.6,48.9-13.1l-3-9c-2.7,7.4-27.2,13.3-27.2,13.3
		c-1.4-8.8,32.1-92.6,32.1-92.6L228.2,69.7z"/>
	<path class="st0" d="M155.9,84.2c0,0,191.2-6.1,204-3.2c0,0-208.7,13.7-216.9,16c0,0-3-4.3-5.1-3.8
		C137.9,93.2,151.6,84.4,155.9,84.2z"/>
</g>
<path class="st0" d="M227.5,240c37.4-5.3,71.2-130.6,71.2-130.6l-21.8,8.4c0,0,3.8,10.4-23.2,31.7c0,0-7-10.8,10.7-41.8l-19.3,8
	c-4.3,4.3-15.9,36.7-2.2,52.5c0,0,22.6-12.9,25.9-19.2c0,0-7.9,47.6-35.8,71.2c0,0-12.2-10.2-4.2-36.2c0,0-12-1.6-16,0
	C204.8,218.8,227.5,240,227.5,240z"/>
<path class="st0" d="M310,107.8c-5.5,7.2-20.1,51-18.3,52.9c0,0,27.2,2.9,31.6-10.3c0,0,1.7,12.5,2.8,13.2c0,0,17.8,1.2,40.9-19.5
	l-5.2,0.1c0,0-17.9,9.9-18.5,9.1c-1.5-2.1-0.8-10.8,9.7-41.9l-19.8,7c-1.4,2.5-14.6,31.5-21.5,31.1c0,0,6.1-27.6,19.2-47.1
	L310,107.8z"/>
<path class="st0" d="M399.9,106.5c0.9-0.6-6.2-1.4-7-1.3s-38.9,11.5-36.8,25.2c0,0,20.2,10.9,18.4,15.9c0,0-13.1,12.8-24.2,14.7
	c0,0,0.5,1.7,3,2.3c0,0,41.6-9,40-24.1c0,0-6.6-11.1-19.3-13.9C373.9,125.3,383.9,116.7,399.9,106.5z"/>
<path class="st0" d="M426,55.8c1,3-19,73.5-37.2,102c0,0,1,2.4,3.5,4.7c0,0,12.5-4.2,15.1-7.2c0,0,11.9-20.8,15.1-21.5
	c0,0,9.2,18,14.2,19c0,0,18.8-1.5,20.2-7.2c0,0-7.5,2.8-19-24.8c-2.2-3-17,5.1-17,5.1s30-67.1,24.8-76.4C443.2,52,426,55.8,426,55.8
	z"/>
<g>
	<path class="st0" d="M40.7,40.3c0,0,154.7-11.3,161.3-8c6.7,3.3-170.7,72-128.7,108.7C21.8,162.2,46,98.2,164,43
		c0,0-119.3,17.3-136,14S40.7,40.3,40.7,40.3z"/>
	<path class="st0" d="M104.5,41.3c1,4.5-33.8,128-41.6,137.6l4.4,2.3c0,0,10.5-8.9,11.9-8.5c0,0,46-133,51.3-134.6L104.5,41.3z"/>
</g>
<path class="st1" d="M246.3,177.3c14.7-0.4,30.2-0.8,46-1.1l1.3,19.7c-16.9,1.3-33.7,2.7-49.8,4"/>
</svg>
