<?xml version="1.0" encoding="utf-8"?>
<!-- Generator: Adobe Illustrator 22.0.1, SVG Export Plug-In . SVG Version: 6.00 Build 0)  -->
<svg version="1.1" id="Layer_1" xmlns="http://www.w3.org/2000/svg" xmlns:xlink="http://www.w3.org/1999/xlink" x="0px" y="0px"
	 viewBox="0 0 100 100" style="enable-background:new 0 0 100 100;" xml:space="preserve">
<style type="text/css">
	.st0{fill:#FF811A;}
</style>
<path class="st0" d="M55.2,1.3C39.9,1.3,26,11,20.8,25.4L20.3,27L8.9,61.2c-0.2,0.6-0.1,1.3,0.3,1.8c0.4,0.5,1,0.8,1.6,0.8h6.6
	c0,1.5,0,3.8,0.5,6.3H29c0,0-1.3,5.1-8,8.2c0.5,0.8,1,1.5,1.7,2.2c3.2,3.6,7.7,5.7,13.4,6v9.2c0,1.1,0.9,2,2,2h37.7c1.1,0,2-0.9,2-2
	V66.8c9-7,14.2-17.5,14.2-28.9C91.8,17.7,75.4,1.3,55.2,1.3z M62.9,47.3l-18.4,7.1l3.9-7.8c-3.9-1.9-7.2-5.3-8.9-9.7
	c-3.6-9.3,1-19.8,10.3-23.4s19.8,1,23.4,10.3C76.8,33.2,72.2,43.7,62.9,47.3z"/>
<rect x="62.2" y="29.5" class="st0" width="3.7" height="3.8"/>
<rect x="54.7" y="29.5" class="st0" width="3.7" height="3.8"/>
<rect x="47.6" y="29.5" class="st0" width="3.7" height="3.8"/>
</svg>
