<?xml version="1.0" encoding="utf-8"?>
<!-- Generator: Adobe Illustrator 22.0.1, SVG Export Plug-In . SVG Version: 6.00 Build 0)  -->
<svg version="1.1" id="Layer_1" xmlns="http://www.w3.org/2000/svg" xmlns:xlink="http://www.w3.org/1999/xlink" x="0px" y="0px"
	 viewBox="0 0 85.3 68.1" style="enable-background:new 0 0 85.3 68.1;" xml:space="preserve">
<style type="text/css">
	.st0{fill:#FFE66D;}
	.st1{fill:#6B7287;}
</style>
<g>
	<g>
		<path class="st0" d="M8.4,59.7c-3-4.7-4.5-10.5-4.5-17.3c0-8.7,2.2-16.6,6.7-23.6C15.1,11.8,21.9,6.2,31,2l2.4,4.7
			c-5.4,2.3-10.1,5.9-14,10.8c-3.9,4.9-5.9,9.9-5.9,15c0,2.1,0.3,3.9,0.8,5.5c2.8-2.3,6-3.4,9.7-3.4c4.7,0,8.7,1.5,11.9,4.6
			c3.2,3.1,4.9,7.1,4.9,12.2c0,4.7-1.6,8.7-4.9,11.9c-3.2,3.2-7.2,4.9-11.9,4.9C17.1,68.1,11.9,65.3,8.4,59.7z M53,59.7
			c-3-4.7-4.5-10.5-4.5-17.3c0-8.7,2.2-16.6,6.7-23.6c4.5-7,11.2-12.6,20.3-16.8l2.4,4.7c-5.4,2.3-10.1,5.9-14,10.8
			c-3.9,4.9-5.9,9.9-5.9,15c0,2.1,0.3,3.9,0.8,5.5c2.8-2.3,6-3.4,9.7-3.4c4.7,0,8.7,1.5,11.9,4.6c3.2,3.1,4.9,7.1,4.9,12.2
			c0,4.7-1.6,8.7-4.9,11.9c-3.2,3.2-7.2,4.9-11.9,4.9C61.7,68.1,56.5,65.3,53,59.7z"/>
	</g>
	<g>
		<path class="st1" d="M4.5,57.7C1.5,53,0,47.2,0,40.4c0-8.7,2.2-16.6,6.7-23.6C11.2,9.8,17.9,4.2,27,0l2.4,4.7
			C24,7,19.3,10.6,15.4,15.5c-3.9,4.9-5.9,9.9-5.9,15c0,2.1,0.3,3.9,0.8,5.5c2.8-2.3,6-3.4,9.7-3.4c4.7,0,8.7,1.5,11.9,4.6
			c3.2,3.1,4.9,7.1,4.9,12.2c0,4.7-1.6,8.7-4.9,11.9c-3.2,3.2-7.2,4.9-11.9,4.9C13.1,66.1,8,63.3,4.5,57.7z M49.1,57.7
			c-3-4.7-4.5-10.5-4.5-17.3c0-8.7,2.2-16.6,6.7-23.6C55.8,9.8,62.5,4.2,71.6,0L74,4.7C68.6,7,63.9,10.6,60,15.5
			c-3.9,4.9-5.9,9.9-5.9,15c0,2.1,0.3,3.9,0.8,5.5c2.8-2.3,6-3.4,9.7-3.4c4.7,0,8.7,1.5,11.9,4.6c3.2,3.1,4.9,7.1,4.9,12.2
			c0,4.7-1.6,8.7-4.9,11.9c-3.2,3.2-7.2,4.9-11.9,4.9C57.7,66.1,52.6,63.3,49.1,57.7z"/>
	</g>
</g>
</svg>
