<?xml version="1.0" encoding="utf-8"?>
<!-- Generator: Adobe Illustrator 22.0.1, SVG Export Plug-In . SVG Version: 6.00 Build 0)  -->
<svg version="1.1" id="Layer_1" xmlns="http://www.w3.org/2000/svg" xmlns:xlink="http://www.w3.org/1999/xlink" x="0px" y="0px"
	 viewBox="0 0 91 91" style="enable-background:new 0 0 91 91;" xml:space="preserve">
<style type="text/css">
	.st0{fill:#FFFFFF;}
</style>
<g>
	<path class="st0" d="M56.2,37.8L56.1,9.2c0-1.9-1.5-3.4-3.4-3.4h-1c-1.9,0-3.4,1.5-3.4,3.4v17.2c-0.1,0.6,5.3,8.1,5.3,8.1
		c0.6,0.9,0.9,2,0.9,3.1c0,0.2,0.1,0.3,0.3,0.3c0.4,0,0.6,0.1,1,0.2C55.8,38.1,56.2,38.3,56.2,37.8z M39.8,47.5
		c0.5,0.8,1.4,1.3,2.3,1.3c0.5,0,1-0.1,1.5-0.4l0.9-0.6c0.6-0.4,1-1,1.2-1.7s0-1.5-0.4-2.1l-8.4-13c-0.8-1.3-2.5-1.6-3.8-0.8
		l-0.9,0.6c-1.3,0.8-1.6,2.5-0.8,3.8L39.8,47.5z M45.7,39.6c0.5,0.8,1.4,1.3,2.3,1.3c0.5,0,1-0.1,1.5-0.4l0.9-0.6
		c1.3-0.8,1.7-2.5,0.8-3.8L44.8,26c-0.8-1.3-2.5-1.7-3.8-0.8l-0.9,0.6c-0.6,0.4-1,1-1.2,1.7l0,0c-0.2,0.7,0,1.5,0.4,2.1L45.7,39.6z
		 M32,52.6c0.5,0.8,1.4,1.3,2.3,1.3c0.5,0,1-0.1,1.5-0.4l0.9-0.6c1.3-0.8,1.7-2.5,0.8-3.8l-8.4-13c-0.4-0.6-1-1-1.7-1.2
		s-1.5,0-2.1,0.4l-0.9,0.6c-1.3,0.8-1.7,2.5-0.8,3.8L32,52.6z M55.1,40.8c-0.8-0.2-1.4,0-1.8,0.6c-1.1,2-0.9,4.2,0.6,5.5l5.4,3.7
		c0.5,0.3,0.7,0.9,0.6,1.4l-1,4c-0.1,0.5-0.5,0.8-0.9,1c-0.1,0-10.7,3.7-11.4,11.3c-0.1,0.7-0.7,1.3-1.5,1.2c-0.4,0-0.7-0.2-0.9-0.5
		s-0.3-0.6-0.3-1c0.8-8,9.7-12.2,12.4-13.3c0.1,0,0.2-0.1,0.2-0.2l0.4-1.8c0.1-0.2,0.1-0.4,0-0.5c0,0-4-2.7-4.6-3.2
		c-1.6-1.3-2.4-3.2-2.4-5.3c0-0.1,0.1-0.5-0.4-0.4c-0.4,0.1-0.6,0.1-1,0.2c-0.1,0-0.3,0.2-0.2,0.5c0.3,0.9,0.3,1.7,0.1,2.6
		c-0.5,2.2-3.3,4.1-3.3,4.1c-0.9,0.6-1.9,0.9-3,0.9c-0.4,0-0.8,0-1.2-0.1c-0.2-0.1-0.3,0.1-0.3,0.2c-0.3,1.5-1.2,2.7-2.4,3.5
		l-0.9,0.6c-1.2,0.8-2.7,1.1-4.2,0.8c-1.4-0.3-2.7-1.2-3.5-2.4l-5.4-8.3c-0.3-0.3-0.6,0-0.6,0.2l0.9,14.5v0.1l7.2,15.7
		c0.1,0.2,0.1,0.4,0.1,0.7l-0.3,3.5c0,0.1,0.1,0.2,0.2,0.3c1.9,1.1,6.9,3.5,13.5,3.5c3.7,0,12-2.3,12.4-3.1c0,0,0.8-4.3,1.1-4.8
		c0.9-1.9,5.6-11.5,7.3-14.8c2.1-4,4.7-14.5,1.1-16.8C65.5,43.8,55.2,40.8,55.1,40.8z"/>
</g>
</svg>
