<?xml version="1.0" encoding="utf-8"?>
<!-- Generator: Adobe Illustrator 22.0.1, SVG Export Plug-In . SVG Version: 6.00 Build 0)  -->
<svg version="1.1" id="Layer_1" xmlns="http://www.w3.org/2000/svg" xmlns:xlink="http://www.w3.org/1999/xlink" x="0px" y="0px"
	 viewBox="0 0 91 91" style="enable-background:new 0 0 91 91;" xml:space="preserve">
<style type="text/css">
	.st0{fill:#FFFFFF;}
</style>
<path class="st0" d="M30.3,53.4c0.9,1.3,2.7,1.7,4,0.9l0.9-0.6c1.3-0.9,1.7-2.7,0.9-4l-8.4-13c-0.6-0.9-1.5-1.3-2.4-1.3
	c-0.5,0-1.1,0.1-1.6,0.5l0,0l-0.9,0.6c-1.3,0.9-1.7,2.7-0.9,4L30.3,53.4z M29.8,35.6l8.3,12.8c1.6,2.5,0.9,5.8-1.6,7.5l-0.9,0.6
	c-0.9,0.6-1.9,0.9-2.9,0.9c-1.8,0-3.5-0.9-4.5-2.5L22,45.2l0.9,14.9l7.2,15.8c0.1,0.2,0.1,0.3,0.1,0.5v4.9
	c3.7,1.1,18.8,5.2,28.3,0.1l1.2-5.3c0-0.1,0.1-0.2,0.1-0.3c0.2-0.5,5.5-11.2,7.4-14.9c2.1-4,4.7-14.6,1.1-17c-1.5-1-8.2-2.8-12-3.8
	c-0.3-0.1-1.5-0.4-2,0.6c-1.2,2.1-0.9,4.3,0.7,5.6l5.4,3.7c0.4,0.3,0.6,0.8,0.5,1.3l-1,4c-0.1,0.4-0.4,0.8-0.8,0.9
	c-0.1,0-10.8,3.7-11.5,11.4c-0.1,0.7-0.7,1.2-1.4,1.1S45,68,45.1,67.3c0.8-8.2,10-12.3,12.6-13.3l0.6-2.5l-4.7-3.3
	c-2.6-2.1-3.1-5.7-1.4-8.8c1.3-2.3,3.8-2.2,4.9-1.8c0.3,0.1,1.6,0.4,3.2,0.8l5.8-24.8c0.2-0.9,0.1-1.9-0.4-2.7s-1.2-1.4-2.1-1.6
	l-1-0.2C61.7,8.9,60.8,9,60,9.5s-1.4,1.2-1.6,2.1l-6.6,23.8l0,0c0,0.1-0.1,0.2-0.1,0.2c0,0.1-0.1,0.1-0.1,0.2
	c-0.1,0.1-0.1,0.1-0.2,0.2c-0.1,0-0.1,0.1-0.2,0.1c-0.1,0-0.1,0.1-0.2,0.1c-0.1,0-0.2,0.1-0.2,0.1l0,0c-0.1,0-0.1,0-0.2,0
	c-0.1,0-0.1,0-0.2,0c0,0,0,0-0.1,0s-0.1-0.1-0.2-0.1c-0.1,0-0.2-0.1-0.3-0.2l-0.1-0.1c-0.1-0.1-0.1-0.2-0.2-0.3c0-0.1,0-0.1-0.1-0.2
	c0-0.1-0.1-0.2-0.1-0.3l0,0l-1.8-28c-0.1-1.9-1.8-3.3-3.7-3.2l-1,0.1c-1.9,0.1-3.4,1.8-3.2,3.7l1,29.7v0.1c0,0.1,0,0.2,0,0.3
	s0,0.1-0.1,0.2c0,0.1-0.1,0.1-0.1,0.2c0,0.1-0.1,0.1-0.1,0.2c-0.1,0.1-0.1,0.1-0.2,0.1c-0.1,0-0.1,0.1-0.2,0.1c0,0,0,0-0.1,0
	s-0.2,0-0.3,0c0,0,0,0-0.1,0l0,0l0,0c-0.2,0-0.3,0-0.4-0.1c0,0-0.1,0-0.1-0.1c-0.1,0-0.2-0.1-0.2-0.2l-0.1-0.1
	c-0.1-0.1-0.1-0.1-0.2-0.2c0-0.1-0.1-0.1-0.1-0.2v-0.1l-6.9-23.1c-0.7-1.5-2.4-2.5-4.1-2l-0.9,0.2c-1.7,0.4-2.6,2.2-2.2,3.8
	L29.8,35.6z"/>
</svg>
