<?xml version="1.0" encoding="UTF-8"?>
<svg width="417px" height="97px" viewBox="0 0 417 97" version="1.1" xmlns="http://www.w3.org/2000/svg" xmlns:xlink="http://www.w3.org/1999/xlink">
    <!-- Generator: Sketch 59.1 (86144) - https://sketch.com -->
    <title>Artboard</title>
    <desc>Created with Sketch.</desc>
    <defs>
        <ellipse id="path-1" cx="27.6729219" cy="27.7580866" rx="27.6292048" ry="27.4540074"></ellipse>
    </defs>
    <g id="Artboard" stroke="none" stroke-width="1" fill="none" fill-rule="evenodd">
        <g id="eatlas_logo" transform="translate(0.000000, -21.000000)">
            <g id="Group" transform="translate(0.000000, 21.000000)">
                <ellipse id="Oval" fill="#F3D040" fill-rule="nonzero" cx="222.435224" cy="80.2422943" rx="194.5" ry="16"></ellipse>
                <g transform="translate(42.076365, 12.337162)">
                    <g transform="translate(0.329218, 0.694803)">
                        <mask id="mask-2" fill="white">
                            <use xlink:href="#path-1"></use>
                        </mask>
                        <use id="Oval" fill="#28BEED" fill-rule="nonzero" xlink:href="#path-1"></use>
                        <path d="M32.4818025,1.30319656 C33.0501247,1.30319656 33.7058812,1.39007633 34.055618,1.82447518 C34.973677,2.86703242 33.4872957,4.3874284 33.5310128,5.77750473 C33.5310128,7.0372614 34.7988086,7.9060591 36.0228873,8.2101383 C37.246966,8.51421749 38.5584789,8.42733772 39.7388405,8.86173658 C42.711603,9.90429382 43.8919646,13.7704436 42.7990372,16.7243558 C41.7498269,19.678268 39.083084,21.7199426 36.328907,23.1968987 C35.4982821,23.6312975 34.6676573,24.0656964 34.1867692,24.8476143 C33.3561444,26.2376906 34.0993351,27.9752861 34.9299599,29.3653624 C35.7605847,30.7554387 36.7223608,32.3192746 36.2851899,33.8396706 C35.9791702,34.9256677 35.0173941,35.7075856 34.0119009,36.1419845 C31.8260461,37.0976619 29.2904545,36.9239024 27.0171655,36.2723041 C24.7438765,35.6207058 22.5580217,34.5781486 20.2847326,33.8396706 C17.7491411,33.0143127 15.0386811,32.6233538 12.3719382,32.6667937 C10.3609518,32.7102335 8.17509699,32.927433 6.55756443,31.7111162 C5.07118316,30.5816792 4.6340122,28.5400046 4.94003187,26.7155294 C5.24605155,24.8910542 6.20782766,23.2837785 7.08216959,21.6765027 C7.95651151,20.069227 8.83085344,18.3750714 8.96200473,16.5505963 C9.13687311,14.0310829 9.13687311,11.8590887 11.0167082,9.90429382 C12.284504,8.64453715 14.2080563,7.81917933 15.7381546,6.95038163 C20.7656207,4.12678909 26.5362774,1.08599713 32.4818025,1.30319656 Z" id="Path" fill="#22B4EA" fill-rule="nonzero" mask="url(#mask-2)"></path>
                        <path d="M14.2954905,-7.64541979 C14.9512469,-8.29701807 15.432135,-9.12237589 16.2190427,-9.60021462 C17.7928582,-10.599332 19.978713,-9.77397416 21.333943,-8.47077761 C22.6891729,-7.16758105 23.607232,-5.47342553 24.9624619,-4.21366886 C25.9242381,-3.34487116 27.0608826,-2.69327288 27.8040732,-1.65071564 C28.634698,-0.477838737 28.7221322,1.08599713 28.4161125,2.51951334 C28.1100929,3.95302955 27.4106193,5.21278622 26.7111458,6.47254289 C26.3176919,7.21102094 25.880521,8.07981864 26.2302577,8.81829669 C26.4488432,9.25269554 26.8422971,9.51333485 27.1045997,9.90429382 C27.8040732,10.9034112 27.4980535,12.2500476 26.9734484,13.3794846 C26.4488432,14.5089216 25.7493697,15.5514789 25.7930868,16.7677957 C25.8368039,17.9841125 26.5799945,19.0266697 27.1045997,20.069227 C27.6729219,21.1117842 28.0663758,22.4584206 27.4543364,23.5009779 C25.9242381,23.2837785 24.3504226,23.4140981 22.9077584,23.848497 C22.3831533,24.0222565 21.8585481,24.2394559 21.333943,24.0656964 C20.9842062,23.9788166 20.7219036,23.7181773 20.459601,23.5009779 C19.060654,22.2412212 17.6617069,20.5905056 18.0114436,18.7660304 C18.2300291,17.766913 18.9295027,16.6809159 18.4486146,15.7686783 C18.0551607,14.9867604 17.0059504,14.8130008 16.2627598,14.3351621 C13.6834511,12.5106869 16.2190427,7.51510014 13.639734,5.64718507 C12.8091092,5.03902668 11.7161818,4.9955868 10.6669715,4.86526714 C8.74341924,4.56118794 6.86358411,3.69239024 5.8143738,2.0416746 C2.01098643,-3.99646944 11.6287476,-5.03902668 14.2954905,-7.64541979 Z" id="Path" fill="#FDF9D1" fill-rule="nonzero" mask="url(#mask-2)"></path>
                        <path d="M27.2357509,-0.521278622 C27.4980535,-0.0868797704 27.716639,0.390958967 27.6729219,0.912237589 C27.5854877,1.78103529 26.79858,2.38919368 26.1865406,3.08423185 C24.9187448,4.56118794 24.8313107,6.90694174 25.880521,8.51421749 C26.1428235,8.94861635 26.5362774,9.3830152 26.4925603,9.86085393 C26.4925603,10.1649331 26.3176919,10.4255724 26.1428235,10.6862118 C24.9624619,12.5541268 23.3886465,14.6392413 24.08812,16.7243558 C24.6564423,18.3750714 26.4488432,19.3307489 27.0608826,20.9380247 C27.1920339,21.3724235 27.279468,21.8502622 26.9734484,22.1977813 C26.7548629,22.5018605 26.3176919,22.5887403 25.9679552,22.6756201 C24.7001594,22.9362594 23.3886465,23.2403386 22.1208507,22.9796993 C20.8530549,22.7190599 19.5852591,21.8068224 19.4103907,20.5470657 C19.1480881,18.8529102 20.6781865,16.9849951 19.7164104,15.5949188 C19.1480881,14.769561 17.9677265,14.6392413 17.2245359,13.9442031 C16.787365,13.5532442 16.5250624,13.0319656 16.3064769,12.5106869 C15.6507204,10.9034112 15.3884179,9.12237589 15.5632863,7.38478048 C15.6507204,6.47254289 15.8255888,5.38654576 15.1261153,4.73494748 C14.7326614,4.3874284 14.1643392,4.25710875 13.639734,4.17022898 C12.4156553,3.95302955 11.1478595,3.77927001 9.92378084,3.56207058 C9.3117415,3.47519081 8.65598505,3.34487116 8.0876628,3.04079196 C6.25154476,2.08511449 6.03295928,-0.651598278 7.16960378,-2.38919368 C8.30624828,-4.12678909 10.2735176,-5.08246657 12.2407869,-5.8643845 C13.5960169,-6.38566312 15.1261153,-6.95038163 15.7818717,-8.25357818 C17.6617069,-11.8156488 18.7546343,-8.25357818 20.7219036,-6.55942266 C22.9077584,-4.51774806 25.7056526,-3.12767173 27.2357509,-0.521278622 Z" id="Path" fill="#ADEF28" fill-rule="nonzero" mask="url(#mask-2)"></path>
                        <path d="M42.6241688,2.12855437 C42.9301885,1.21631678 43.4547936,0.304079196 44.3728527,-1.47104551e-15 C45.0723262,-0.260639311 45.902951,-0.0868797704 46.6461417,0.130319656 C49.3566016,0.912237589 51.9796274,1.95479483 54.515219,3.25799139 C56.0890345,4.08334921 57.6628499,5.12590645 58.3186064,6.7331822 C58.8432115,8.07981864 58.5809089,9.60021462 58.7994944,11.0337308 C59.0180799,12.6410066 59.8049876,14.1179627 60.4607441,15.5949188 C61.5536715,18.1144321 62.253145,20.807705 62.9526186,23.5009779 C63.3460724,25.0648137 63.608375,27.0630485 62.253145,27.9318462 C60.7230467,28.9309635 58.7120602,27.4105675 56.8759422,27.6712069 C54.95239,27.9318462 53.8157455,30.0604005 51.9359103,30.5382393 C50.3620949,30.9291982 48.7882794,30.1038404 47.3893323,29.2784826 C45.902951,28.4096849 44.4165698,27.5408872 42.9301885,26.6720895 C42.5804517,26.49833 42.274432,26.2811305 42.0121295,25.9770513 C41.356373,25.1082536 41.9246953,23.8919368 42.0558466,22.8059397 C42.1869979,21.1117842 41.0940705,19.5045084 41.0503534,17.766913 C41.0503534,16.5071564 41.6186756,15.2908396 41.356373,14.0745228 C41.1377875,13.0754054 40.438314,12.2500476 39.7388405,11.5115696 C38.5147618,10.1649331 36.9409463,8.07981864 38.7333473,6.55942266 C39.3453866,6.03814404 40.3508798,5.99470415 41.0066363,5.42998565 C41.9684124,4.51774806 42.230715,3.34487116 42.6241688,2.12855437 Z" id="Path" fill="#FDF9D1" fill-rule="nonzero" mask="url(#mask-2)"></path>
                        <path d="M39.6514063,6.82006197 C38.9519327,7.42822037 38.2524592,8.29701807 38.4710447,9.16581577 C38.5584789,9.60021462 38.9082156,9.99117359 39.2142353,10.3386927 C40.0448601,11.2943701 40.9192021,12.2500476 41.7498269,13.2057251 C42.3181491,13.8138835 42.8864714,14.5089216 43.1050569,15.2908396 C43.4547936,16.5505963 42.8427543,17.8537928 42.4930175,19.1135495 C41.9684124,20.9814645 42.0121295,22.9796993 42.5367346,24.8476143 C42.7553201,25.5426525 43.0613398,26.2376906 43.629662,26.7155294 C44.1105501,27.1064883 44.7663065,27.3236878 45.3346288,27.5843271 C46.5149904,28.1056057 47.5642007,28.8875236 48.7882794,29.3653624 C49.968641,29.886641 51.4550223,30.0604005 52.5042326,29.3219225 C53.2037061,28.8440838 53.6845942,28.0621658 54.3403506,27.5408872 C55.2584096,26.7589693 56.6136396,26.5417698 57.7502841,26.9327288 C58.6683431,27.236808 59.5864022,27.9752861 60.5044612,27.6712069 C61.7285399,27.3236878 61.8596912,25.6729721 61.6411057,24.4566554 C60.7667638,19.0266697 57.6191328,14.1179627 57.0945277,8.64453715 C57.0508106,7.99293887 57.0070935,7.29790071 56.7010738,6.7331822 C56.3950541,6.12502381 55.8267319,5.69062496 55.3021267,5.29966599 C52.0233445,2.95391219 48.2636742,1.30319656 44.2854185,0.564718507 C44.984892,0.695038163 44.6788723,3.64895035 44.1979843,4.08334921 C43.0613398,5.21278622 40.9629192,5.69062496 39.6514063,6.82006197 Z" id="Path" fill="#ADEF28" fill-rule="nonzero" mask="url(#mask-2)"></path>
                        <path d="M7.12588668,15.7252384 C7.43190636,15.7686783 7.73792603,15.8121182 8.04394571,15.7252384 C8.43739957,15.6383587 8.74341924,15.4211592 9.09315601,15.2473997 C10.9729912,14.2917222 13.5085827,15.11708 14.6015101,16.8981153 C15.6944375,18.6791506 15.3009837,21.198664 13.8146024,22.6756201 C13.1151289,23.3706582 12.2407869,23.848497 11.4538792,24.3697756 C9.61776117,25.5860924 8.0876628,27.1933681 6.60128153,28.757204 C5.59578832,29.7997612 4.5902951,30.8857584 3.58480189,31.9283156 C3.06019674,32.4495942 2.53559158,33.0143127 2.22957191,33.665911 C2.05470352,34.05687 1.92355223,34.4912688 1.70496675,34.8822278 C0.961776117,36.1419845 -0.786907732,36.2723041 -2.22957191,36.315744 C-2.57930868,36.315744 -2.97276254,36.315744 -3.19134802,36.0116648 C-3.36621641,35.8379053 -3.36621641,35.5338261 -3.36621641,35.2731868 C-3.40993351,33.1446324 -3.19134802,31.016078 -2.92904545,28.8875236 C-2.53559158,25.4557727 -2.14213772,22.0240218 -1.74868385,18.5922709 C-1.66124966,17.7234732 -1.53009837,16.8112356 -1.09292741,16.0727575 C0.306019674,13.8138835 4.98374897,15.4211592 7.12588668,15.7252384 Z" id="Path" fill="#FDF9D1" fill-rule="nonzero" mask="url(#mask-2)"></path>
                        <path d="M-3.84710447,36.8804625 C-2.66674287,31.5807965 -1.44266418,26.2376906 -0.262302577,20.9380247 C0.174868385,19.0266697 0.961776117,16.7677957 2.88532835,16.3768367 C4.98374897,15.9424379 7.34447217,18.157872 9.13687311,16.9415552 C9.44289278,16.7243558 9.70519536,16.4202766 9.96749794,16.2030772 C11.1915766,15.2473997 13.2025631,15.898998 13.9894708,17.2456344 C14.7763785,18.5922709 14.4703589,20.3733061 13.639734,21.6765027 C12.8091092,23.0231391 11.5413134,23.9788166 10.2298005,24.8476143 C8.91828763,25.716412 7.56305765,26.5417698 6.51384734,27.6712069 C5.37720284,28.8440838 4.5902951,30.3644797 3.27878222,31.2767173 C2.44815739,31.8848757 1.44266418,32.1889549 0.524605155,32.6233538 C-2.49187448,34.1437497 -4.45914381,37.0542221 -6.33897895,39.8343747" id="Path" fill="#ADEF28" fill-rule="nonzero" mask="url(#mask-2)"></path>
                    </g>
                    <g id="Face" transform="translate(16.067373, 8.079584)" fill-rule="nonzero">
                        <g id="Group">
                            <ellipse id="Oval" fill="#000000" cx="2.66674287" cy="2.82359254" rx="2.44815739" ry="2.43263357"></ellipse>
                            <ellipse id="Oval" fill="#FFFFFF" cx="3.36621641" cy="2.0416746" rx="1" ry="1"></ellipse>
                        </g>
                        <g id="Group" transform="translate(18.361180, 0.434399)">
                            <ellipse id="Oval" fill="#000000" cx="2.84161125" cy="2.43263357" rx="2.44815739" ry="2.43263357"></ellipse>
                            <ellipse id="Oval" fill="#FFFFFF" cx="3.58480189" cy="1.60727575" rx="1" ry="1"></ellipse>
                        </g>
                        <path d="M12.1970698,18.7225905 C8.87457053,18.7225905 6.16411057,16.2030772 5.90180799,12.9885257 C5.85809089,12.6844465 6.12039347,12.467247 6.38269605,12.467247 L6.38269605,12.467247 C6.64499863,12.467247 6.86358411,12.6844465 6.86358411,12.9016459 C7.08216959,15.5949188 9.39917569,17.7234732 12.1533528,17.7234732 C14.9075298,17.7234732 17.268253,15.6383587 17.4868385,12.9016459 C17.5305556,12.6410066 17.705424,12.467247 17.9677265,12.467247 L17.9677265,12.467247 C18.2737462,12.467247 18.4923317,12.7278864 18.4486146,12.9885257 C18.2300291,16.2030772 15.5195692,18.7225905 12.1970698,18.7225905 Z" id="Path" fill="#231F20"></path>
                    </g>
                </g>
                <g transform="translate(12.240787, 0.000000)" fill-rule="nonzero">
                    <path d="M5.46463703,0.738478048 C4.94003187,-0.0434398852 3.80338737,-0.217199426 3.06019674,0.347519081 L1.00549321,1.91135495 C0.262302577,2.47607346 0.131151289,3.5186307 0.69947354,4.25710875 L59.4115338,80.9285061 L60.2421586,80.4072275 L5.46463703,0.738478048 Z" id="Path" fill="#231F20"></path>
                    <polygon id="Rectangle" fill="#FFFFFF" transform="translate(20.423902, 25.246749) rotate(-34.735738) translate(-20.423902, -25.246749) " points="20.1212598 -3.09224227 20.5575367 -3.09094422 20.7265435 53.5857396 20.2902666 53.5844416"></polygon>
                </g>
                <g transform="translate(0.000000, 10.425572)" fill-rule="nonzero">
                    <path d="M4.98374897,0.651598278 C4.28427543,-2.22044605e-16 3.19134802,0.0434398852 2.53559158,0.781917933 L0.830624828,2.73671277 C0.218585481,3.43175093 0.306019674,4.47430817 1.00549321,5.08246657 L74.4502149,67.9834203 L75.1496884,67.2883821 L4.98374897,0.651598278 Z" id="Path" fill="#000000"></path>
                    <polygon id="Rectangle" fill="#FFFFFF" transform="translate(24.753826, 21.527886) rotate(-46.709935) translate(-24.753826, -21.527886) " points="24.4459003 -6.84811055 24.8816075 -6.84672695 25.0617526 49.9038829 24.6260454 49.9024993"></polygon>
                </g>
                <path d="M87.9587976,76.1935586 C101.379946,70.0250949 111.041424,57.123449 112.527806,41.8326094 C112.571523,41.3547707 112.178069,40.9638117 111.740898,40.9638117 L28.4598296,40.3990932 C27.9789416,40.3990932 27.5854877,40.7900522 27.6292048,41.2678909 C28.9407177,57.123449 39.0393669,70.5029336 53.1162719,76.5845176 C54.1654822,77.0189164 54.6026532,78.2352332 54.1654822,79.2777904 L53.3348574,81.2325853 C53.1162719,81.7973038 53.5097258,82.4054622 54.1217651,82.4054622 L70.6468275,82.4054622 L87.1718899,82.4054622 C87.7839292,82.4054622 88.1773831,81.7973038 87.9587976,81.2325853 L86.9533044,78.8868315 C86.4724163,77.8442742 86.9095873,76.6713973 87.9587976,76.1935586 Z" id="Path" fill="#E3382D" fill-rule="nonzero"></path>
                <path d="M33.7933154,45.785639 L39.4328208,45.785639 C39.4328208,59.382323 51.0178513,70.4594938 51.0178513,70.4594938 C46.340122,70.2422943 33.7933154,58.1225664 33.7933154,45.785639 Z" id="Path" fill="#FFFFFF" fill-rule="nonzero"></path>
                <rect id="Rectangle" fill="#E3382D" fill-rule="nonzero" x="32.3506512" y="50.6074662" width="11.0604253" height="2.47607346"></rect>
            </g>
            <path d="M181.1,29.7 L181.1,53.9 L180.9,53.9 L168,33.3 C167.33333,32.233328 166.400006,31.7 165.2,31.7 L154.9,31.7 C154.166663,31.7 153.700001,31.8166655 153.5,32.05 C153.299999,32.2833345 153.2,32.833329 153.2,33.7 L153.2,63.8 L160,63.8 C161,63.733333 161.866663,63.266671 162.6,62.4 L171.6,52 L171.8,52 L171.8,77.5 L171.6,77.5 L162.6,67.1 C161.799996,66.233329 160.900005,65.8 159.9,65.8 L153.2,65.8 L153.2,96 C153.2,96.866671 153.299999,97.4166655 153.5,97.65 C153.700001,97.8833345 154.166663,98 154.9,98 L166.4,98 C167.866674,98 168.866664,97.533338 169.4,96.6 L181.8,75.4 L182,75.4 L182,100 L127.5,100 L127.5,99.8 L134.2,93.5 C134.800003,92.899997 135.1,92.100005 135.1,91.1 L135.1,38.6 C135.1,37.599995 134.800003,36.800003 134.2,36.2 L127.5,29.9 L127.5,29.7 L181.1,29.7 Z M232.3,69.9 L232.292,70.5159995 L232.292,70.5159995 L232.2,73.5 L232.2,73.5 L231.6,87.7 C231.399999,91.566686 232.29999,93.5 234.3,93.5 C235.566673,93.5 236.499997,92.900006 237.1,91.7 L237.3,91.7 C237.3,93.03334 237.033336,94.233328 236.5,95.3 C234.699991,98.966685 231.433357,100.8 226.7,100.8 C223.699985,100.8 221.166677,99.9500085 219.1,98.25 C217.033323,96.5499915 215.933334,94.166682 215.8,91.1 C214.799995,94.033348 213.083346,96.3833245 210.65,98.15 C208.216655,99.9166755 205.400016,100.8 202.2,100.8 C198.333314,100.8 195.100013,99.5500125 192.5,97.05 C189.899987,94.5499875 188.6,91.100022 188.6,86.7 C188.6,82.03331 190.283317,78.3500135 193.65,75.65 C197.016683,72.9499865 200.933311,71.6 205.4,71.6 C209.933356,71.6 213.466654,72.499991 216,74.3 L216.2,63.6 L216.2,63.1 C216.2,55.433295 213.766691,51.6 208.9,51.6 L208.465679,51.6047337 C207.719326,51.6220906 207.247437,51.6871789 207.05,51.8 C206.816665,51.933334 206.533335,52.266664 206.2,52.8 L198.1,67.8 L197.9,67.8 L191.6,53.5 C198.666702,50.966654 205.399968,49.7 211.8,49.7 C218.866702,49.7 224.033317,51.233318 227.3,54.3 C230.63335,57.433349 232.3,62.633297 232.3,69.9 Z M212.3,74.7 C209.766654,74.7 207.783341,75.666657 206.35,77.6 C204.91666,79.533343 204.2,81.999985 204.2,85 C204.2,87.66668 204.749995,89.7499925 205.85,91.25 C206.950006,92.7500075 208.366658,93.5 210.1,93.5 C212.366678,93.5 214.266659,92.333345 215.8,90 L216,75.3 C214.799994,74.899998 213.566673,74.7 212.3,74.7 Z M272,50.5 L272,52.5 L259.7,52.5 L259.7,85.9 C259.7,88.166678 260.166662,89.9166605 261.1,91.15 C262.033338,92.3833395 263.333325,93 265,93 C267.533346,93 269.46666,91.766679 270.8,89.3 L271,89.4 C270.4,92.600016 268.916678,95.299989 266.55,97.5 C264.183322,99.700011 260.800022,100.8 256.4,100.8 C247.73329,100.8 243.4,96.233379 243.4,87.1 L243.4,52.5 L237.9,52.5 L237.9,50.5 L242.4,50.5 C243.800007,50.5 244.83333,50.133337 245.5,49.4 L259.5,33.7 L259.7,33.7 L259.7,50.5 L272,50.5 Z M294.2,27.1 L294.2,92.8 C294.2,93.800005 294.53333,94.6 295.2,95.2 L300.1,99.8 L300.1,100 L272.1,100 L272.1,99.8 L277,95.2 C277.6,94.6 277.9,93.800005 277.9,92.8 L277.9,37 C277.9,35.933328 277.6,35.1 277,34.5 L272.1,29.9 L272.1,29.7 L294.2,27.1 Z M346.6,69.9 L346.592,70.5159995 L346.592,70.5159995 L346.5,73.5 L346.5,73.5 L345.9,87.7 C345.699999,91.566686 346.59999,93.5 348.6,93.5 C349.866673,93.5 350.799997,92.900006 351.4,91.7 L351.6,91.7 C351.6,93.03334 351.333336,94.233328 350.8,95.3 C348.999991,98.966685 345.733357,100.8 341,100.8 C337.999985,100.8 335.466677,99.9500085 333.4,98.25 C331.333323,96.5499915 330.233334,94.166682 330.1,91.1 C329.099995,94.033348 327.383346,96.3833245 324.95,98.15 C322.516655,99.9166755 319.700016,100.8 316.5,100.8 C312.633314,100.8 309.400013,99.5500125 306.8,97.05 C304.199987,94.5499875 302.9,91.100022 302.9,86.7 C302.9,82.03331 304.583317,78.3500135 307.95,75.65 C311.316684,72.9499865 315.233311,71.6 319.7,71.6 C324.233356,71.6 327.766654,72.499991 330.3,74.3 L330.5,63.6 L330.5,63.1 C330.5,55.433295 328.066691,51.6 323.2,51.6 L322.765679,51.6047337 C322.019326,51.6220906 321.547437,51.6871789 321.35,51.8 C321.116666,51.933334 320.833335,52.266664 320.5,52.8 L312.4,67.8 L312.2,67.8 L305.9,53.5 C312.966702,50.966654 319.699968,49.7 326.1,49.7 C333.166702,49.7 338.333317,51.233318 341.6,54.3 C344.93335,57.433349 346.6,62.633297 346.6,69.9 Z M326.6,74.7 C324.066654,74.7 322.083341,75.666657 320.65,77.6 C319.216659,79.533343 318.5,81.999985 318.5,85 C318.5,87.66668 319.049995,89.7499925 320.15,91.25 C321.250006,92.7500075 322.666658,93.5 324.4,93.5 C326.666678,93.5 328.566659,92.333345 330.1,90 L330.3,75.3 C329.099994,74.899998 327.866673,74.7 326.6,74.7 Z M382.1,91.7 C382.1,89.766657 381.416674,88.233339 380.05,87.1 C378.683327,85.966661 376.166685,84.566675 372.5,82.9 L365.7,79.7 C359.233301,76.633318 356,71.900032 356,65.5 C356,60.699976 357.833315,56.866681 361.5,54 C365.166685,51.133319 370.166635,49.7 376.5,49.7 C382.366696,49.7 388.233304,50.599991 394.1,52.4 L388.5,66.9 L388.3,66.9 L380.5,53 C379.899997,51.999995 379.133338,51.5 378.2,51.5 L376.8,51.5 C374.466655,51.5 372.533341,52.099994 371,53.3 C369.466659,54.500006 368.7,56.233322 368.7,58.5 C368.7,60.566677 369.41666,62.233327 370.85,63.5 C372.283341,64.766673 374.633317,66.133326 377.9,67.6 L384.3,70.4 C387.900018,71.933341 390.649991,73.733323 392.55,75.8 C394.45001,77.866677 395.4,80.666649 395.4,84.2 C395.4,89.466693 393.366687,93.5499855 389.3,96.45 C385.233313,99.3500145 379.800034,100.8 373,100.8 C366.599968,100.8 360.466696,99.766677 354.6,97.7 L360.1,82.2 L360.3,82.2 L368.3,97.7 C368.700002,98.566671 369.399995,99 370.4,99 L372.7,99 C375.566681,99 377.849992,98.33334 379.55,97 C381.250009,95.66666 382.1,93.900011 382.1,91.7 Z" id="Eatlas" fill="#2C3E51" fill-rule="nonzero"></path>
        </g>
    </g>
</svg>