<?xml version="1.0" encoding="utf-8"?>
<!-- Generator: Adobe Illustrator 22.0.1, SVG Export Plug-In . SVG Version: 6.00 Build 0)  -->
<svg version="1.1" id="Layer_1" xmlns="http://www.w3.org/2000/svg" xmlns:xlink="http://www.w3.org/1999/xlink" x="0px" y="0px"
	 viewBox="0 0 400 194.7" style="enable-background:new 0 0 400 194.7;" xml:space="preserve">
<style type="text/css">
	.st0{fill:#44C8F5;}
</style>
<g>
	<path class="st0" d="M298.2,57.2h49.7v15.8h-30.3v14.6h23.1l2.5,16.3h-25.7v17.2H349v11.7l51-9.5L355,0L69,56.7
		c6.5,0.7,11.5,2.4,16.6,4.9l-3,16.7c-7.2-4.2-14.7-6.5-20.8-6.5c-6,0-8.9,2.5-8.9,6.2c0,4,2.2,6,12.1,9.8
		c17.3,6.4,24.3,12.4,24.3,25.1c0,17.3-12.7,25-28.6,25c-10.8,0-19.8-2.3-27.9-6l2.9-16.9c8.2,4.4,17.3,7.4,25.3,7.4
		c5.7,0,9.6-2.4,9.6-7.2c0-4.5-2.3-6.6-13.5-10.9c-16-6.1-22.9-11.3-22.9-24.5c0-8,3.2-14,8.5-18L0,70.4l15.7,124.3L326.4,137h-28.2
		V57.2z M100.1,137V57.2h19.8v62.7h24.5L147,137H100.1z M212.5,137.8l-6-17.3h-27.4l-5.6,16.5h-19.3l28.7-80.2h21.7l27.8,77.7
		L212.5,137.8z M265.3,74v63h-19.9V74h-22.1V57.2h63.1l2.8,16.8H265.3z"/>
	<polygon class="st0" points="183.7,105 201.8,105 192.7,77.2 	"/>
</g>
</svg>
