<?xml version="1.0" standalone="no"?>
<!DOCTYPE svg PUBLIC "-//W3C//DTD SVG 20010904//EN"
 "http://www.w3.org/TR/2001/REC-SVG-20010904/DTD/svg10.dtd">
<svg version="1.0" xmlns="http://www.w3.org/2000/svg"
 width="700.000000pt" height="700.000000pt" viewBox="0 0 700.000000 700.000000"
 preserveAspectRatio="xMidYMid meet">
<metadata>
Created by potrace 1.11, written by Peter Selinger 2001-2013
</metadata>
<g transform="translate(0.000000,700.000000) scale(0.100000,-0.100000)"
fill="#000000" stroke="none">
<path d="M3423 6500 c-97 -20 -217 -103 -257 -180 -7 -14 -45 -81 -83 -150
-38 -69 -89 -161 -113 -205 -69 -129 -85 -155 -91 -155 -4 0 -118 68 -255 152
-137 83 -271 160 -299 171 -70 28 -190 27 -266 -2 -117 -45 -204 -135 -239
-249 -20 -64 -21 -82 -14 -380 l6 -314 -308 6 c-338 7 -379 3 -469 -50 -79
-46 -157 -150 -180 -239 -16 -64 -14 -147 5 -209 13 -39 75 -153 175 -316 85
-140 155 -257 155 -260 0 -4 -15 -14 -32 -23 -31 -15 -98 -52 -233 -126 -33
-19 -94 -52 -135 -74 -108 -58 -144 -82 -184 -122 -163 -163 -145 -443 38
-582 35 -26 121 -75 486 -276 30 -16 57 -31 59 -33 2 -2 -67 -120 -153 -263
-86 -143 -163 -278 -171 -301 -62 -175 26 -394 188 -474 87 -42 135 -48 357
-42 212 5 352 8 383 7 17 -1 18 -17 12 -318 -8 -361 -4 -386 68 -485 73 -100
170 -154 295 -164 119 -9 155 7 537 241 94 57 173 104 176 105 4 0 13 -13 20
-28 8 -15 73 -135 144 -266 142 -260 184 -315 278 -360 193 -95 409 -27 521
163 18 31 86 154 151 274 65 119 121 217 125 217 3 0 114 -66 246 -146 131
-80 258 -154 282 -165 214 -99 468 20 536 250 14 48 15 97 10 368 l-6 313 339
-3 338 -2 65 32 c110 55 176 130 210 240 25 80 21 190 -9 258 -19 44 -87 161
-156 270 -85 134 -165 267 -165 274 0 4 17 16 38 27 238 122 500 275 542 316
155 151 155 402 1 553 -35 34 -121 87 -312 192 -145 80 -266 147 -268 149 -2
2 68 124 157 271 173 287 192 331 187 438 -8 155 -116 302 -260 352 -53 19
-245 24 -536 13 -75 -3 -144 -4 -153 -2 -14 3 -15 38 -13 340 l2 337 -33 67
c-74 152 -228 240 -390 224 -85 -7 -126 -27 -398 -194 -127 -78 -238 -144
-246 -147 -9 -4 -20 5 -29 22 -8 15 -36 68 -63 118 -77 140 -122 223 -169 309
-71 132 -151 199 -274 231 -62 16 -105 17 -170 5z"/>
</g>
</svg>
