<svg xmlns="http://www.w3.org/2000/svg" width="48" height="48" viewBox="0 0 48 48">
  <path fill="#FFF" d="M17.3333333,7 L14,7 L14,10.4 L12.3333333,10.4 C10.4833333,10.4 9,11.93 9,13.8 L9,37.6 C9,39.47 10.4833333,41 12.3333333,41 L35.6666667,41 C37.5,41 39,39.47 39,37.6 L39,13.8 C39,11.93 37.5,10.4 35.6666667,10.4 L34,10.4 L34,7 L30.6666667,7 L30.6666667,10.4 L17.3333333,10.4 L17.3333333,7 Z M24,15 C26.7666667,15 29,17.2333333 29,20 C29,22.7666667 26.7666667,25 24,25 C21.2333333,25 19,22.7666667 19,20 C19,17.2333333 21.2333333,15 24,15 Z M34,36 L14,36 L14,33.5365854 C14,29.6824752 20.4220393,28.0604152 23.811449,28.0016606 L24,28 C27.3333333,28 34,29.6097561 34,33.5365854 L34,36 Z"/>
</svg>
