<svg xmlns="http://www.w3.org/2000/svg" width="48" height="48" viewBox="0 0 48 48">
  <path fill="#FFF" d="M29.7107143,41.1107143 C28.8107143,41.2714286 28.4785714,40.7142857 28.4785714,40.2535714 C28.4785714,39.675 28.5,36.7178571 28.5,34.3285714 C28.5,32.6571429 27.9428571,31.5964286 27.2892857,31.0392857 C31.2535714,30.6 35.4321429,30.0535714 35.4321429,23.2071429 C35.4321429,21.2571429 34.7357143,20.2821429 33.6,19.0285714 C33.7821429,18.5678571 34.3928571,16.6714286 33.4178571,14.2071429 C31.9285714,13.7464286 28.5214286,16.125 28.5214286,16.125 C27.1071429,15.7285714 25.575,15.525 24.0642857,15.525 C22.5535714,15.525 21.0214286,15.7285714 19.6071429,16.125 C19.6071429,16.125 16.2,13.7464286 14.7107143,14.2071429 C13.7357143,16.6607143 14.3357143,18.5571429 14.5285714,19.0285714 C13.3928571,20.2821429 12.8571429,21.2571429 12.8571429,23.2071429 C12.8571429,30.0214286 16.8535714,30.6 20.8178571,31.0392857 C20.3035714,31.5 19.8428571,32.2928571 19.6821429,33.4285714 C18.6642857,33.8892857 16.0607143,34.6821429 14.5071429,31.9392857 C13.5321429,30.2464286 11.775,30.1071429 11.775,30.1071429 C10.0392857,30.0857143 11.6571429,31.2 11.6571429,31.2 C12.8142857,31.7357143 13.6285714,33.7928571 13.6285714,33.7928571 C14.6678571,36.975 19.6392857,35.9035714 19.6392857,35.9035714 C19.6392857,37.3928571 19.6607143,39.8142857 19.6607143,40.2535714 C19.6607143,40.7142857 19.3392857,41.2714286 18.4285714,41.1107143 C11.3571429,38.7428571 6.40714286,32.0142857 6.40714286,24.15 C6.40714286,14.3142857 13.9285714,6.84642857 23.7642857,6.84642857 C33.6,6.84642857 41.5714465,14.3142857 41.5714465,24.15 C41.5821429,32.0142857 36.7821429,38.7535714 29.7107143,41.1107143 Z"/>
</svg>
