<svg xmlns="http://www.w3.org/2000/svg" width="48" height="48" viewBox="0 0 48 48">
  <path fill="#FFF" d="M14.5071429,41.1428571 L7.39285714,41.1428571 L7.39285714,18.2357143 L14.5178571,18.2357143 L14.5178571,41.1428571 L14.5071429,41.1428571 Z M10.95,15.1071429 C8.66785714,15.1071429 6.825,13.2535714 6.825,10.9821429 C6.825,8.71071429 8.66785714,6.85714286 10.95,6.85714286 C13.2214286,6.85714286 15.075,8.71071429 15.075,10.9821429 C15.075,13.2642857 13.2321429,15.1071429 10.95,15.1071429 L10.95,15.1071429 Z M41.175,41.1428571 L34.0607143,41.1428571 L34.0607143,30 C34.0607143,27.3428571 34.0071429,23.925 30.3642857,23.925 C26.6571429,23.925 26.0892857,26.8178571 26.0892857,29.8071429 L26.0892857,41.1428571 L18.975,41.1428571 L18.975,18.2357143 L25.8,18.2357143 L25.8,21.3642857 L25.8964286,21.3642857 C26.85,19.5642857 29.175,17.6678571 32.6357143,17.6678571 C39.8357143,17.6678571 41.175,22.4142857 41.175,28.5857143 L41.175,41.1428571 L41.175,41.1428571 Z"/>
</svg>
