<svg xmlns="http://www.w3.org/2000/svg" width="48" height="48" viewBox="0 0 48 48">
  <path fill="#FFF" d="M27.5,7 L13.5,7 C11.575,7 10.0175,8.53 10.0175,10.4 L10,37.6 C10,39.47 11.5575,41 13.4825,41 L34.5,41 C36.425,41 38,39.47 38,37.6 L38,17.2 L27.5,7 Z M21.1693491,17.1753978 C21.5907118,15.6359846 24.5324476,15.4093704 24.8991892,17.7067689 C25.3205519,19.0820823 24.766538,21.2778952 24.4154024,22.7235371 C25.1488856,24.6614787 26.1866863,25.9742779 27.7472888,26.9276201 L28.1750596,26.8751469 C29.7858812,26.6896022 32.5,26.5199185 33.4903061,27.4902483 C34.3876526,28.3810763 34.2315924,30.8816462 31.9531127,30.8816462 C30.6344035,30.8816462 28.6524383,30.2799465 26.9591845,29.3578614 C25.0162344,29.6782469 22.8079818,30.5065607 20.7948045,31.1707745 C18.8128393,34.5934295 17.4239031,36 16.0271638,36 C15.5979981,36 14.7864848,35.7577573 14.3495161,35.2185719 C12.8964,33.4281249 16.3093207,31.1102578 18.440827,29.9887427 L18.617764,29.8970468 L18.617764,29.8970468 C19.5619285,28.2404193 20.8962437,25.3491354 21.8013932,23.192394 L21.580663,22.3081062 C21.064049,20.1552345 20.8250986,18.4371743 21.1693491,17.1753978 Z M19.0405317,31.2095838 C17.3221981,31.7111717 14.9616331,33.5336272 15.5403613,34.2935006 C16.1190896,35.0533741 18.4466552,33.3586479 19.0405317,31.2095838 Z M23.0126435,23.8789166 C22.4005609,25.4897619 21.6453831,28.172676 20.7630302,29.7197255 C22.2177202,29.1615118 24.5353992,28.3756699 26.4352402,28.0008693 C25.4257012,27.235319 23.7757596,25.2664764 23.0126435,23.8789166 Z M28.1800373,28.2840583 C29.941107,29.3975621 32.2550816,29.8811724 32.4966366,29.0873367 C32.7381915,28.2935011 31.0356749,27.5910893 28.1800373,28.2840583 Z M22.8753344,16.9791599 C21.7815844,16.9791599 22.4017936,20.8480531 23.0528353,22.2126586 C23.7820019,21.3597802 23.9690844,16.9791599 22.8753344,16.9791599 Z"/>
</svg>
