<svg xmlns="http://www.w3.org/2000/svg" width="48" height="48" viewBox="0 0 48 48">
  <path fill="#FFF" d="M37.6178571,17.0142857 C37.6392857,17.3142857 37.6392857,17.625 37.6392857,17.925 C37.6392857,27.2142857 30.5678571,37.9178571 17.6464286,37.9178571 C13.6607143,37.9178571 9.96428571,36.7607143 6.85714286,34.7678571 C7.425,34.8321429 7.97142857,34.8535714 8.55,34.8535714 C11.8392857,34.8535714 14.8607143,33.7392857 17.2714286,31.8535714 C14.1857143,31.7892857 11.5928571,29.7642857 10.7035714,26.9785714 C11.7857143,27.1392857 12.7607143,27.1392857 13.875,26.85 C10.6607143,26.1964286 8.25,23.3678571 8.25,19.95 L8.25,19.8642857 C9.18214286,20.3892857 10.275,20.7107143 11.4214286,20.7535714 C9.46376588,19.4513965 8.28900792,17.25476 8.29285714,14.9035714 C8.29285714,13.5964286 8.63571429,12.3964286 9.24642857,11.3571429 C12.7071429,15.6214286 17.9035714,18.4071429 23.7321429,18.7071429 C22.7357143,13.9392857 26.3035714,10.0714286 30.5892857,10.0714286 C32.6142857,10.0714286 34.4357143,10.9178571 35.7214286,12.2892857 C37.3071429,11.9892857 38.8285714,11.4 40.1785714,10.5964286 C39.6535714,12.225 38.55,13.5964286 37.0928571,14.4642857 C38.5071429,14.3142857 39.8785714,13.9178571 41.1428571,13.3714286 C40.1892857,14.775 38.9892857,16.0178571 37.6178571,17.0142857 L37.6178571,17.0142857 Z"/>
</svg>
